<?xml version="1.0" encoding="UTF-8" standalone="yes"?>
<svg xmlns="http://www.w3.org/2000/svg" xmlns:xlink="http://www.w3.org/1999/xlink" width="10.227273in" height="5.681818in" version="1.1" viewBox="8.000000 -119.000000 1350.000000 750.000000">
  <!--
	Exported with Concepts: Smarter Sketching
	Version: 721 on iOS 12.3
	https://concepts.app/
	-->
  <title>Untitled 18</title>
  <desc>Drawing exported from Concepts: Smarter Sketching</desc>
  <rect x="8.000" y="-119.000" width="1350.000" height="750.000" stroke="none" fill="white"></rect>
  <g id="Fill" opacity="1.000">
    <path id="STROKE_17AFE037-48AE-47EF-B7A7-6A39E0C16DF5" opacity="1.000" fill="#f45e58" stroke="#f45e58" stroke-width="0.500" stroke-opacity="1.000" stroke-linecap="round" stroke-linejoin="round" d="M -32.218 -153.463 Q -33.217 -156.803 -32.979 -156.041 Q -32.742 -155.280 -33.333 -156.881 Q -32.472 -153.469 -34.079 -143.822 Q -35.686 -134.176 -41.850 -107.922 Q -48.015 -81.667 -51.575 -67.712 Q -55.135 -53.756 -56.599 -45.232 Q -58.063 -36.708 -58.659 -32.167 Q -59.256 -27.626 -59.769 -21.599 Q -60.282 -15.571 -60.419 -11.740 Q -60.555 -7.909 -60.804 6.111 Q -61.052 20.132 -60.653 31.730 Q -60.253 43.329 -58.036 53.749 Q -55.820 64.170 -54.211 71.168 Q -52.601 78.166 -51.368 83.490 Q -50.136 88.815 -49.169 92.834 Q -48.203 96.854 -40.687 125.160 Q -33.171 153.466 -29.239 171.521 Q -25.306 189.576 -23.724 198.076 Q -22.142 206.575 -21.586 210.282 Q -21.030 213.988 -20.690 216.654 Q -20.350 219.320 -20.251 221.017 Q -20.152 222.715 -18.059 237.958 Q -15.966 253.201 -14.206 272.462 Q -12.446 291.722 -11.906 303.121 Q -11.367 314.520 -10.975 322.132 Q -10.582 329.744 -10.445 335.305 Q -10.307 340.866 -10.118 344.981 Q -9.928 349.095 -9.114 368.111 Q -8.300 387.127 -8.668 402.183 Q -9.035 417.240 -10.547 427.235 Q -12.060 437.231 -15.718 453.879 Q -19.376 470.528 -21.772 480.503 Q -24.167 490.477 -27.382 500.647 Q -30.596 510.817 -31.835 524.415 Q -33.075 538.013 -32.461 547.643 Q -31.847 557.274 -31.177 562.416 Q -30.507 567.559 -29.297 571.037 Q -28.088 574.516 -25.940 581.750 Q -23.792 588.984 -23.048 602.918 Q -22.304 616.852 -22.249 626.685 Q -22.194 636.518 -22.569 642.548 Q -22.945 648.578 -23.723 652.296 Q -24.501 656.013 -24.463 656.806 Q -24.425 657.599 -24.431 658.536 Q -24.436 659.473 -24.429 660.632 Q -24.423 661.791 -24.415 661.749 Q -24.406 661.706 -24.374 661.899 Q -24.342 662.091 -24.273 662.587 Q -24.205 663.083 -22.226 665.066 Q -20.248 667.049 -17.219 668.764 Q -14.191 670.478 -8.900 672.110 Q -3.609 673.742 0.175 674.935 Q 3.959 676.128 12.312 679.354 Q 20.664 682.581 33.922 683.673 Q 47.180 684.766 55.784 684.556 Q 64.388 684.346 72.346 684.261 Q 80.303 684.177 88.837 683.871 Q 97.370 683.565 113.642 683.379 Q 129.913 683.193 141.016 682.874 Q 152.119 682.555 184.083 680.765 Q 216.047 678.975 244.143 677.322 Q 272.239 675.670 285.172 675.342 Q 298.106 675.014 304.070 674.660 Q 310.033 674.305 324.853 675.520 Q 339.673 676.734 348.946 678.068 Q 358.219 679.401 368.941 680.554 Q 379.663 681.708 389.105 682.395 Q 398.547 683.082 414.886 684.305 Q 431.224 685.528 444.660 686.819 Q 458.095 688.111 465.538 688.939 Q 472.980 689.768 488.156 690.744 Q 503.332 691.720 525.529 691.235 Q 547.726 690.750 559.021 690.322 Q 570.317 689.893 585.167 688.587 Q 600.018 687.280 608.777 686.437 Q 617.537 685.594 627.690 683.680 Q 637.844 681.767 661.468 679.824 Q 685.091 677.882 698.181 677.652 Q 711.270 677.422 725.778 676.598 Q 740.286 675.773 748.908 675.285 Q 757.530 674.798 762.034 674.343 Q 766.538 673.888 796.839 672.441 Q 827.140 670.994 843.121 670.290 Q 859.101 669.587 867.365 669.479 Q 875.629 669.371 886.764 669.284 Q 897.899 669.197 904.561 669.037 Q 911.223 668.877 923.019 668.965 Q 934.815 669.054 952.165 671.765 Q 969.515 674.477 978.598 676.432 Q 987.681 678.386 1001.686 678.669 Q 1015.691 678.951 1033.401 680.327 Q 1051.110 681.703 1073.555 682.769 Q 1096.001 683.836 1106.351 684.113 Q 1116.702 684.391 1126.237 684.519 Q 1135.773 684.646 1155.488 686.986 Q 1175.204 689.325 1184.765 690.794 Q 1194.326 692.263 1201.962 692.659 Q 1209.599 693.056 1225.268 692.299 Q 1240.938 691.543 1257.474 690.561 Q 1274.009 689.578 1283.008 688.940 Q 1292.006 688.303 1297.192 687.621 Q 1302.378 686.939 1314.070 685.297 Q 1325.763 683.655 1334.056 683.507 Q 1342.349 683.359 1357.034 680.321 Q 1371.720 677.282 1379.249 675.673 Q 1386.778 674.064 1390.215 673.777 Q 1393.651 673.490 1396.922 673.004 Q 1400.194 672.519 1406.211 671.117 Q 1412.229 669.715 1417.812 669.175 Q 1423.395 668.635 1428.954 669.211 Q 1434.514 669.786 1437.429 669.812 Q 1440.343 669.837 1441.373 669.778 Q 1442.403 669.719 1447.620 671.049 Q 1452.837 672.379 1456.783 674.231 Q 1460.729 676.082 1468.261 675.367 Q 1468.824 675.267 1470.724 659.256 Q 1472.625 643.245 1472.543 627.672 Q 1472.460 612.099 1471.990 603.986 Q 1471.520 595.873 1471.750 588.894 Q 1471.980 581.914 1472.240 578.022 Q 1472.500 574.131 1474.536 560.049 Q 1476.572 545.967 1476.667 522.787 Q 1476.762 499.607 1476.874 486.940 Q 1476.986 474.273 1475.875 465.427 Q 1474.764 456.580 1471.865 442.230 Q 1468.966 427.880 1467.662 420.326 Q 1466.358 412.772 1465.281 403.176 Q 1464.205 393.581 1462.684 382.081 Q 1461.164 370.582 1460.364 364.294 Q 1459.564 358.007 1459.756 348.800 Q 1459.948 339.593 1460.406 333.487 Q 1460.865 327.381 1461.791 320.539 Q 1462.718 313.698 1463.760 308.709 Q 1464.802 303.720 1466.159 292.167 Q 1467.516 280.614 1468.432 270.492 Q 1469.349 260.371 1470.276 255.420 Q 1471.203 250.470 1474.356 234.228 Q 1477.510 217.986 1482.098 198.076 Q 1486.687 178.166 1489.006 168.119 Q 1491.326 158.073 1492.024 153.373 Q 1492.722 148.674 1493.069 142.446 Q 1493.416 136.218 1493.450 129.261 Q 1493.484 122.304 1492.687 117.585 Q 1491.890 112.867 1489.075 95.551 Q 1486.260 78.236 1485.238 64.576 Q 1484.215 50.917 1483.434 40.596 Q 1482.654 30.274 1480.772 21.365 Q 1478.890 12.455 1477.044 4.126 Q 1475.198 -4.204 1474.004 -11.373 Q 1472.810 -18.542 1469.777 -27.781 Q 1466.744 -37.019 1465.035 -46.325 Q 1463.326 -55.631 1462.230 -66.433 Q 1461.135 -77.235 1459.639 -85.857 Q 1458.143 -94.479 1457.204 -99.569 Q 1456.265 -104.658 1456.407 -108.011 Q 1456.548 -111.364 1458.484 -114.364 Q 1460.421 -117.363 1462.283 -119.223 Q 1464.146 -121.084 1466.742 -122.767 Q 1469.337 -124.451 1471.677 -125.706 Q 1474.016 -126.961 1475.289 -127.926 Q 1476.562 -128.890 1476.719 -129.047 Q 1476.875 -129.203 1477.177 -129.542 Q 1477.479 -129.880 1477.808 -130.707 Q 1478.137 -131.534 1478.349 -132.175 Q 1478.561 -132.817 1478.387 -132.733 Q 1478.213 -132.649 1478.375 -132.608 Q 1478.536 -132.567 1477.727 -133.582 Q 1476.917 -134.596 1476.701 -134.849 Q 1476.486 -135.101 1476.020 -135.502 Q 1475.553 -135.903 1475.293 -136.099 Q 1475.034 -136.294 1475.028 -136.308 Q 1475.022 -136.321 1474.513 -136.693 Q 1474.003 -137.065 1473.347 -137.565 Q 1472.691 -138.064 1472.536 -138.200 Q 1472.381 -138.335 1471.941 -138.669 Q 1471.501 -139.003 1470.199 -140.082 Q 1468.896 -141.161 1467.397 -142.375 Q 1465.897 -143.589 1465.588 -143.820 Q 1465.278 -144.051 1465.226 -144.071 Q 1465.175 -144.090 1465.136 -144.123 Q 1465.097 -144.155 1464.162 -144.797 Q 1463.227 -145.438 1463.327 -145.489 Q 1462.230 -147.089 1461.997 -147.564 Q 1461.763 -148.039 1461.868 -147.800 Q 1461.021 -149.853 1461.253 -149.285 Q 1461.485 -148.718 1461.365 -148.978 Q 1461.245 -149.239 1461.040 -149.780 Q 1460.834 -150.321 1460.626 -150.835 Q 1460.419 -151.350 1460.411 -151.459 Q 1460.403 -151.569 1460.426 -151.154 Q 1460.449 -150.739 1459.234 -155.240 Q 1459.177 -155.240 1459.119 -155.240 Q 1459.445 -156.698 1459.472 -156.795 Q 1459.499 -156.892 1459.549 -156.948 Q 1459.599 -157.003 1459.482 -157.681 Q 1459.365 -158.358 1459.115 -159.033 "></path>
  </g>
  <g id="Pen" opacity="1.000">
    <path id="STROKE_08120AB8-8036-4F52-9B4E-3DAFDB4FF4C0" opacity="1.000" fill="none" stroke="#009ef1" stroke-width="6.472" stroke-opacity="1.000" stroke-linecap="round" stroke-linejoin="round" d="M 193.693 9.090 Q 194.773 8.541 195.223 8.128 Q 195.673 7.715 196.730 6.391 Q 197.787 5.067 198.738 3.458 Q 199.690 1.850 202.529 -4.509 Q 205.368 -10.867 208.930 -21.803 Q 212.491 -32.738 215.336 -42.466 Q 218.182 -52.194 220.574 -62.531 Q 222.967 -72.869 223.476 -80.707 Q 223.985 -88.544 223.518 -92.731 Q 223.051 -96.918 222.028 -99.535 Q 221.004 -102.152 219.050 -104.363 Q 217.097 -106.575 213.845 -107.561 Q 210.594 -108.547 206.008 -107.588 Q 201.423 -106.628 194.451 -102.056 Q 187.479 -97.484 176.795 -84.620 Q 166.110 -71.756 157.850 -58.203 Q 149.590 -44.650 142.488 -29.697 Q 135.386 -14.744 130.498 -1.585 Q 125.611 11.574 121.339 28.547 Q 117.068 45.521 115.180 60.159 Q 113.293 74.797 113.030 83.900 Q 112.767 93.002 112.973 99.308 Q 113.178 105.615 114.709 114.337 Q 116.241 123.060 118.936 130.402 Q 121.630 137.744 124.993 143.183 Q 128.356 148.621 132.069 152.517 Q 135.783 156.413 140.286 159.120 Q 144.790 161.826 152.222 163.268 Q 159.655 164.710 167.156 163.787 Q 174.657 162.864 181.985 159.909 Q 189.313 156.954 196.676 151.529 Q 204.040 146.105 207.562 142.722 Q 211.085 139.339 214.096 135.887 Q 217.108 132.435 220.236 127.894 Q 223.364 123.353 224.638 119.600 L 224.413 119.362 Q 224.106 119.267 224.129 120.467 "></path>
    <path id="STROKE_6EA50085-9949-46E0-807A-F5BE3915F25D" opacity="1.000" fill="none" stroke="#009ef1" stroke-width="8.128" stroke-opacity="1.000" stroke-linecap="round" stroke-linejoin="round" d="M 267.437 75.163 Q 261.550 76.814 259.918 77.594 Q 258.286 78.374 255.995 79.859 Q 253.705 81.344 249.519 86.643 Q 245.334 91.942 242.580 100.976 Q 239.826 110.009 241.560 119.374 Q 243.473 120.642 250.108 115.318 Q 256.742 109.994 261.168 105.932 Q 265.594 101.869 270.733 100.687 Q 271.808 101.238 276.661 110.150 Q 281.514 119.063 283.315 121.262 Q 285.116 123.461 286.362 124.391 Q 287.607 125.320 288.123 125.459 Q 288.639 125.598 288.760 125.689 Q 288.881 125.780 289.953 125.824 Q 291.024 125.868 294.781 124.416 "></path>
    <path id="STROKE_8371D05D-F3CB-40BC-B82F-6AD9AE56FCF3" opacity="1.000" fill="none" stroke="#009ef1" stroke-width="7.048" stroke-opacity="1.000" stroke-linecap="round" stroke-linejoin="round" d="M 326.881 65.705 Q 327.022 67.205 329.347 74.848 Q 331.673 82.491 336.749 95.977 Q 341.826 109.463 344.476 116.891 Q 347.127 124.319 349.140 129.949 Q 351.152 135.580 357.455 156.172 Q 363.758 176.764 367.190 190.480 Q 370.622 204.195 371.654 213.527 Q 372.685 222.858 371.427 227.497 Q 370.388 228.029 366.116 220.410 Q 361.843 212.791 357.946 198.081 Q 354.049 183.372 351.982 163.342 Q 349.916 143.312 349.904 125.785 Q 349.893 108.258 350.760 97.695 Q 351.628 87.131 353.105 79.018 Q 354.582 70.904 356.877 64.013 Q 359.172 57.122 361.635 53.001 Q 364.097 48.879 366.988 45.974 Q 369.879 43.068 373.179 41.688 Q 376.479 40.308 380.215 40.283 Q 383.951 40.258 387.860 42.582 Q 391.769 44.905 394.982 49.656 Q 398.195 54.406 399.959 60.859 Q 401.722 67.313 401.798 73.911 Q 401.873 80.508 400.253 86.525 Q 398.633 92.541 395.680 97.053 Q 392.727 101.566 389.761 104.023 Q 386.795 106.481 380.927 108.341 Q 375.058 110.201 371.241 111.032 "></path>
    <path id="STROKE_79C95907-5FE9-400D-9463-8BF1637A64EB" opacity="1.000" fill="none" stroke="#009ef1" stroke-width="7.092" stroke-opacity="1.000" stroke-linecap="round" stroke-linejoin="round" d="M 617.076 -30.889 Q 615.927 -33.138 611.339 -38.255 Q 606.751 -43.373 601.284 -47.113 Q 595.818 -50.852 587.131 -53.688 Q 578.445 -56.524 569.131 -57.135 Q 559.817 -57.746 554.134 -57.279 Q 548.451 -56.812 538.504 -54.002 Q 528.557 -51.192 515.441 -44.051 Q 502.326 -36.909 493.492 -30.826 Q 484.659 -24.742 474.690 -16.013 Q 464.721 -7.283 459.698 -2.165 Q 454.675 2.953 449.664 9.577 Q 444.652 16.200 442.398 20.975 Q 440.144 25.750 439.724 30.088 Q 439.304 34.426 439.815 37.034 Q 440.327 39.642 442.288 42.329 Q 444.249 45.016 446.757 46.731 Q 449.265 48.445 451.924 49.782 Q 454.584 51.120 469.491 52.466 Q 484.397 53.813 492.898 53.614 Q 501.399 53.415 505.932 53.180 Q 510.465 52.945 522.702 52.332 Q 534.939 51.719 547.579 52.050 Q 560.219 52.380 566.876 52.999 Q 573.534 53.617 580.966 54.808 Q 588.398 55.999 597.905 58.849 Q 607.413 61.698 612.733 63.874 Q 618.053 66.050 624.453 69.547 Q 630.854 73.044 637.352 77.864 Q 643.850 82.683 647.938 87.431 Q 652.027 92.178 653.411 94.831 Q 654.794 97.483 655.454 101.147 Q 656.114 104.811 655.901 107.569 Q 655.688 110.326 652.633 115.658 Q 649.578 120.991 642.087 126.465 Q 634.597 131.939 627.166 135.206 Q 619.734 138.473 612.691 140.939 Q 605.647 143.405 592.391 146.774 Q 579.135 150.143 568.585 151.668 Q 558.035 153.193 546.730 153.582 Q 535.424 153.970 526.465 153.001 Q 517.506 152.032 512.392 150.732 Q 507.278 149.433 504.637 148.505 Q 501.996 147.578 499.984 146.465 Q 497.972 145.352 496.154 143.789 Q 494.335 142.225 494.696 140.634 Q 495.058 139.044 495.696 136.794 "></path>
    <path id="STROKE_9917EA29-C588-42CC-BDD1-B6ACB5450C0B" opacity="1.000" fill="none" stroke="#009ef1" stroke-width="5.763" stroke-opacity="1.000" stroke-linecap="round" stroke-linejoin="round" d="M 698.506 -57.209 Q 697.941 -57.493 694.926 -57.701 Q 694.518 -57.416 693.452 -55.163 Q 692.386 -52.911 691.557 -46.053 Q 690.729 -39.195 695.119 -6.835 Q 699.510 25.525 702.410 42.536 Q 705.310 59.547 707.092 69.027 Q 708.874 78.508 709.822 83.233 Q 710.769 87.958 713.113 98.123 Q 715.458 108.288 718.867 120.007 Q 722.277 131.727 727.276 154.390 L 726.366 156.669 "></path>
    <path id="STROKE_A6EEFE5D-3567-4FF7-BFF3-38B554BC8DAC" opacity="1.000" fill="none" stroke="#009ef1" stroke-width="8.101" stroke-opacity="1.000" stroke-linecap="round" stroke-linejoin="round" d="M 643.498 90.750 Q 646.053 88.696 651.894 85.368 Q 657.734 82.040 675.245 77.674 Q 692.756 73.308 705.478 71.254 Q 718.201 69.199 738.681 66.571 Q 759.162 63.943 764.142 63.297 "></path>
    <path id="STROKE_83C8E535-9DDE-48A2-93F8-10F2394C5377" opacity="1.000" fill="none" stroke="#009ef1" stroke-width="8.128" stroke-opacity="1.000" stroke-linecap="round" stroke-linejoin="round" d="M 833.464 78.972 Q 832.337 78.244 828.896 77.707 Q 825.454 77.169 823.199 77.280 Q 820.944 77.391 818.483 78.129 Q 816.021 78.868 812.199 81.405 Q 808.377 83.941 804.764 87.963 Q 801.150 91.985 798.222 97.486 Q 795.293 102.988 794.066 109.206 Q 792.838 115.425 793.167 118.482 Q 793.496 121.539 794.856 124.494 Q 796.216 127.449 800.140 129.172 Q 804.063 130.895 809.231 130.232 Q 814.399 129.570 819.996 126.516 Q 825.594 123.461 830.335 119.350 Q 835.076 115.238 839.501 109.575 Q 843.925 103.911 846.435 98.731 Q 848.946 93.551 849.833 88.651 Q 850.719 83.751 850.116 78.738 Q 849.513 73.726 847.006 69.602 Q 844.498 65.477 840.539 62.330 Q 836.579 59.183 831.151 57.180 Q 825.724 55.176 821.578 54.836 Q 817.432 54.496 812.125 54.454 "></path>
    <path id="STROKE_0993A0D7-2A0E-4EE4-BF03-33EEF881B5D5" opacity="1.000" fill="none" stroke="#009ef1" stroke-width="8.125" stroke-opacity="1.000" stroke-linecap="round" stroke-linejoin="round" d="M 883.460 52.053 L 883.495 52.392 Q 883.742 52.986 887.582 59.565 Q 891.423 66.144 895.497 76.455 Q 899.570 86.766 902.389 99.814 Q 905.207 112.861 907.994 124.311 Q 908.388 123.600 911.223 110.856 Q 914.057 98.112 917.298 85.976 Q 920.539 73.840 924.072 66.002 Q 927.605 58.164 929.922 55.209 Q 932.239 52.254 934.786 50.377 Q 937.333 48.500 940.033 47.721 Q 942.732 46.942 946.095 47.746 Q 949.457 48.550 951.189 49.599 Q 952.920 50.647 958.099 56.904 Q 963.277 63.161 966.363 69.054 Q 969.449 74.947 975.201 88.319 Q 980.953 101.691 984.820 110.494 Q 988.687 119.296 991.659 124.926 Q 994.632 130.556 998.291 135.460 Q 1001.950 140.364 1004.878 142.752 Q 1007.806 145.141 1010.201 146.121 Q 1012.597 147.101 1014.860 147.102 Q 1017.122 147.102 1022.283 144.667 "></path>
    <path id="STROKE_6921D1F3-F5EA-44D8-8751-9C075FDBEDBE" opacity="1.000" fill="none" stroke="#009ef1" stroke-width="7.619" stroke-opacity="1.000" stroke-linecap="round" stroke-linejoin="round" d="M 1027.810 77.420 Q 1028.692 78.868 1031.258 81.078 Q 1033.824 83.287 1037.196 84.948 Q 1040.568 86.609 1046.953 87.487 Q 1053.340 88.365 1063.046 86.867 Q 1072.753 85.369 1086.174 79.397 Q 1099.596 73.426 1106.980 68.911 Q 1114.364 64.397 1118.647 61.453 Q 1122.931 58.510 1128.423 53.956 Q 1133.915 49.402 1137.421 45.315 Q 1140.926 41.228 1142.241 38.472 Q 1143.555 35.716 1143.478 32.613 Q 1143.401 29.510 1141.511 28.014 Q 1139.621 26.518 1134.025 25.523 Q 1128.430 24.529 1115.492 27.964 Q 1102.554 31.398 1089.355 38.091 Q 1076.156 44.783 1069.718 48.939 Q 1063.279 53.094 1055.391 59.644 Q 1047.501 66.194 1040.801 73.870 Q 1034.100 81.546 1030.100 88.393 Q 1026.100 95.240 1024.387 101.212 Q 1022.675 107.184 1022.446 110.237 Q 1022.218 113.289 1022.604 116.809 Q 1022.989 120.328 1024.279 123.286 Q 1025.568 126.244 1028.329 129.041 Q 1031.091 131.839 1037.552 134.237 Q 1044.014 136.636 1055.512 136.842 Q 1067.011 137.049 1080.804 134.352 Q 1094.597 131.656 1109.837 126.317 Q 1125.076 120.979 1133.635 116.436 Q 1142.194 111.894 1145.990 108.852 Q 1149.785 105.811 1151.209 104.004 Q 1152.634 102.197 1152.907 99.710 Q 1152.626 99.209 1146.814 95.601 "></path>
    <path id="STROKE_63F10B53-3542-422B-A450-D50A49B96A9F" opacity="1.000" fill="none" stroke="#009ef1" stroke-width="6.292" stroke-opacity="1.000" stroke-linecap="round" stroke-linejoin="round" d="M 1290.781 -99.318 Q 1290.471 -99.058 1289.174 -98.247 Q 1288.294 -96.584 1287.113 -88.908 Q 1285.931 -81.231 1285.959 -66.762 Q 1285.987 -52.292 1286.587 -43.445 Q 1287.187 -34.598 1288.473 -21.463 Q 1289.758 -8.329 1291.170 2.987 Q 1292.583 14.302 1296.056 37.609 Q 1299.530 60.915 1301.829 73.137 Q 1304.127 85.359 1306.004 91.837 Q 1307.881 98.315 1310.245 102.358 Q 1312.608 106.402 1313.267 107.382 "></path>
    <path id="STROKE_F5B77BA8-0C76-4375-9932-AB849B71E204" opacity="1.000" fill="none" stroke="#009ef1" stroke-width="8.128" stroke-opacity="1.000" stroke-linecap="round" stroke-linejoin="round" d="M 1286.209 185.859 Q 1286.393 185.335 1286.897 184.594 Q 1287.402 183.853 1288.357 182.517 Q 1289.311 181.181 1290.041 179.965 Q 1290.771 178.749 1292.408 175.737 "></path>
    <path id="STROKE_DC503398-C8F8-460D-AD82-C1C2DD2F998A" opacity="1.000" fill="none" stroke="#009ef1" stroke-width="5.720" stroke-opacity="1.000" stroke-linecap="round" stroke-linejoin="round" d="M 362.876 619.661 Q 364.326 619.004 364.506 618.924 Q 364.686 618.844 370.491 613.379 Q 376.295 607.914 379.319 604.353 Q 382.343 600.793 384.642 597.472 Q 386.942 594.151 401.890 576.288 Q 416.839 558.425 433.206 540.984 Q 449.573 523.543 458.146 514.258 Q 466.720 504.973 473.730 497.380 Q 480.741 489.787 488.055 481.894 Q 495.368 474.000 504.607 463.837 Q 513.845 453.674 526.820 439.312 Q 539.795 424.951 558.542 404.423 Q 577.288 383.895 587.421 372.860 Q 597.554 361.825 607.347 351.257 Q 617.140 340.690 624.103 333.286 Q 631.065 325.883 637.757 318.760 Q 644.448 311.637 648.792 307.015 Q 653.137 302.393 655.849 299.567 Q 658.561 296.740 663.523 291.445 Q 668.484 286.151 689.619 264.375 Q 710.754 242.599 725.169 228.828 Q 739.583 215.057 753.304 202.728 Q 767.024 190.399 774.276 185.106 Q 781.528 179.813 786.307 178.248 Q 786.554 178.362 787.994 178.778 Q 789.435 179.194 791.496 180.379 Q 793.558 181.563 795.382 182.928 Q 797.207 184.293 798.776 185.556 Q 800.345 186.819 805.446 193.045 Q 810.546 199.271 813.369 203.880 Q 816.192 208.488 817.525 210.852 Q 818.858 213.215 824.783 225.520 Q 830.707 237.824 838.658 255.777 Q 846.608 273.729 850.624 282.830 Q 854.641 291.931 861.419 308.671 Q 868.197 325.411 872.107 335.912 Q 876.016 346.414 883.301 366.979 Q 890.585 387.544 896.376 402.877 Q 902.168 418.210 906.555 428.896 Q 910.943 439.582 915.485 450.300 Q 920.027 461.018 927.311 476.760 Q 934.595 492.503 938.548 500.459 Q 942.500 508.416 949.771 521.680 Q 957.042 534.944 963.975 545.718 Q 970.908 556.492 974.911 561.774 Q 978.914 567.056 982.517 571.384 Q 986.120 575.712 994.541 583.728 Q 1002.962 591.744 1007.455 595.675 Q 1011.948 599.605 1016.151 605.005 Q 1012.650 606.461 1010.770 606.387 Q 1008.890 606.314 1007.205 605.168 Q 1005.520 604.022 1003.186 601.485 Q 1000.853 598.949 998.371 596.042 "></path>
    <path id="STROKE_C949C67C-073A-4516-865A-EAE641F68C80" opacity="1.000" fill="none" stroke="#009ef1" stroke-width="5.131" stroke-opacity="1.000" stroke-linecap="round" stroke-linejoin="round" d="M 387.487 621.590 Q 379.008 628.297 377.619 630.258 Q 376.231 632.220 376.076 632.831 Q 375.922 633.443 376.055 634.034 Q 376.189 634.625 376.526 634.880 Q 376.862 635.135 377.434 635.372 Q 378.006 635.608 380.419 635.849 Q 382.833 636.090 387.746 634.827 Q 392.659 633.564 407.561 627.267 Q 422.463 620.971 440.500 614.671 Q 458.538 608.372 483.495 602.925 Q 508.452 597.477 528.368 594.363 Q 548.283 591.250 572.777 588.197 Q 597.270 585.145 631.776 582.515 Q 666.283 579.884 683.183 578.942 Q 700.083 578.000 726.635 577.719 Q 753.187 577.439 767.230 577.333 Q 781.274 577.228 811.512 578.987 Q 841.749 580.746 858.141 582.131 Q 874.533 583.516 893.906 584.777 Q 913.278 586.039 923.777 586.546 Q 934.276 587.053 951.638 587.092 Q 969.000 587.132 980.924 586.384 Q 992.848 585.637 999.724 584.913 Q 1006.601 584.189 1014.216 583.273 Q 1021.830 582.358 1027.422 581.310 Q 1033.014 580.262 1030.413 579.110 Q 1027.812 577.957 1022.486 574.180 Q 1017.160 570.402 1013.713 567.606 "></path>
    <path id="STROKE_B0F2A063-F0D4-44EC-91FD-E81EF074E826" opacity="1.000" fill="none" stroke="#009ef1" stroke-width="7.353" stroke-opacity="1.000" stroke-linecap="round" stroke-linejoin="round" d="M 674.860 281.062 L 674.980 281.461 L 674.895 282.085 Q 674.791 282.744 674.869 282.919 Q 674.853 283.120 676.402 284.941 Q 677.951 286.762 682.585 289.673 Q 687.219 292.584 696.837 294.490 Q 706.455 296.396 720.896 295.400 Q 735.338 294.403 751.202 292.480 Q 767.066 290.557 776.287 289.796 Q 785.508 289.036 790.779 288.803 Q 796.050 288.571 810.691 288.651 Q 825.333 288.731 832.505 288.487 Q 839.677 288.243 843.187 287.330 Q 846.698 286.417 847.862 285.751 Q 849.026 285.086 849.457 284.881 Q 849.888 284.675 851.305 282.669 Q 851.275 282.530 850.846 280.764 "></path>
    <path id="STROKE_3C17B0C5-3ED1-4F9F-A50C-DBAC8917AA9C" opacity="1.000" fill="none" stroke="#009ef1" stroke-width="8.128" stroke-opacity="1.000" stroke-linecap="round" stroke-linejoin="round" d="M 867.213 205.460 Q 868.156 205.107 881.460 193.720 Q 894.764 182.334 897.507 179.796 "></path>
    <path id="STROKE_441D603D-0E73-49E5-AAFF-E34432B11C4D" opacity="1.000" fill="none" stroke="#009ef1" stroke-width="8.128" stroke-opacity="1.000" stroke-linecap="round" stroke-linejoin="round" d="M 855.339 177.541 Q 855.703 176.566 861.713 166.744 Q 867.723 156.921 869.957 153.245 "></path>
    <path id="STROKE_674CE326-6C66-4698-9419-B062FF798763" opacity="1.000" fill="none" stroke="#009ef1" stroke-width="8.085" stroke-opacity="1.000" stroke-linecap="round" stroke-linejoin="round" d="M 836.684 5.607 Q 835.512 3.478 834.570 -5.611 Q 833.628 -14.699 836.461 -27.146 Q 839.293 -39.594 845.328 -53.776 Q 851.362 -67.959 853.890 -73.463 "></path>
    <path id="STROKE_AAC78A51-887A-456D-9D78-832BDE846095" opacity="1.000" fill="none" stroke="#009ef1" stroke-width="8.128" stroke-opacity="1.000" stroke-linecap="round" stroke-linejoin="round" d="M 711.565 189.386 Q 710.126 188.108 704.106 181.183 Q 698.085 174.258 695.715 171.471 "></path>
    <path id="STROKE_5992DAA9-F016-4099-8AED-AAC97BF4254E" opacity="1.000" fill="none" stroke="#009ef1" stroke-width="6.877" stroke-opacity="1.000" stroke-linecap="round" stroke-linejoin="round" d="M 660.709 237.887 Q 659.239 238.012 648.462 236.854 Q 637.685 235.697 629.668 235.321 Q 621.651 234.945 617.563 234.934 Q 613.476 234.923 597.718 236.694 Q 581.961 238.465 569.156 240.274 Q 556.350 242.083 549.051 243.003 "></path>
  </g>
</svg>